<svg width="48" height="48" viewBox="0 0 48 48" fill="none" xmlns="http://www.w3.org/2000/svg">
<rect width="48" height="48" fill="#332544"/>
<path d="M34.25 13H14.25C13.9185 13 13.6005 13.1273 13.3661 13.3539C13.1317 13.5805 13 13.8879 13 14.2083V33.5417C13 33.8621 13.1317 34.1695 13.3661 34.3961C13.6005 34.6227 13.9185 34.75 14.25 34.75H34.25C34.5815 34.75 34.8995 34.6227 35.1339 34.3961C35.3683 34.1695 35.5 33.8621 35.5 33.5417V14.2083C35.5 13.8879 35.3683 13.5805 35.1339 13.3539C34.8995 13.1273 34.5815 13 34.25 13V13ZM19.6737 31.5322H16.3337V21.1526H19.6737V31.5322ZM18.0037 19.7353C17.4906 19.7353 16.9984 19.5382 16.6355 19.1874C16.2726 18.8366 16.0687 18.3608 16.0687 17.8648C16.0687 17.3687 16.2726 16.8929 16.6355 16.5421C16.9984 16.1913 17.4906 15.9943 18.0037 15.9943C18.5169 15.9943 19.0091 16.1913 19.372 16.5421C19.7349 16.8929 19.9387 17.3687 19.9387 17.8648C19.9387 18.3608 19.7349 18.8366 19.372 19.1874C19.0091 19.5382 18.5169 19.7353 18.0037 19.7353V19.7353ZM32.1725 31.5322H28.8362V26.485C28.8362 25.2815 28.8138 23.7336 27.1013 23.7336C25.3638 23.7336 25.1 25.0459 25.1 26.4004V31.5334H21.7662V21.1538H24.9662V22.5724H25.0125C25.4562 21.7568 26.5462 20.8965 28.1675 20.8965C31.5475 20.8965 32.1712 23.0449 32.1712 25.841V31.5322H32.1725Z" fill="white"/>
</svg>
